<?xml version="1.0" standalone="no"?>
<!DOCTYPE svg PUBLIC "-//W3C//DTD SVG 20010904//EN"
 "http://www.w3.org/TR/2001/REC-SVG-20010904/DTD/svg10.dtd">
<svg version="1.0" xmlns="http://www.w3.org/2000/svg"
 width="339.000000pt" height="280.000000pt" viewBox="0 0 339.000000 280.000000"
 preserveAspectRatio="xMidYMid meet">

<g transform="translate(0.000000,280.000000) scale(0.100000,-0.100000)"
fill="#000000" stroke="none">
<path d="M50 2703 c0 -16 4 -77 10 -138 21 -245 41 -591 55 -965 8 -217 17
-468 21 -557 l6 -163 234 0 234 0 0 88 c0 49 3 170 7 269 l6 181 199 -276
c110 -153 205 -283 212 -290 10 -11 49 42 202 275 l189 288 7 -45 c3 -25 7
-145 7 -267 l1 -223 240 0 240 0 0 143 c0 278 43 1352 66 1630 l6 77 -328 0
-329 0 -19 -48 c-27 -68 -124 -265 -204 -419 l-70 -133 -82 161 c-45 88 -108
222 -141 297 l-59 137 -355 3 -355 2 0 -27z"/>
<path d="M2093 2633 c27 -405 41 -682 60 -1178 l22 -570 351 -3 352 -2 7 205
7 205 42 0 c22 -1 93 -7 156 -14 63 -8 116 -13 118 -11 2 2 9 40 17 86 7 46
23 133 34 192 12 59 21 109 21 110 0 1 -39 -1 -87 -5 -49 -3 -132 -7 -186 -7
l-99 -1 7 158 c4 86 11 161 15 166 8 8 325 -9 363 -20 13 -4 17 1 17 19 0 37
39 644 45 710 l6 57 -637 0 -637 0 6 -97z"/>
<path d="M2298 714 c-60 -18 -139 -102 -165 -176 -26 -76 -23 -204 7 -283 33
-85 107 -158 179 -175 138 -33 255 37 311 186 28 77 28 212 -1 290 -52 137
-188 202 -331 158z m133 -290 c22 -27 23 -114 1 -154 -24 -44 -63 -52 -86 -17
-25 37 -31 107 -13 150 14 32 20 37 50 37 19 0 40 -7 48 -16z"/>
<path d="M1867 713 c-2 -4 -19 -54 -36 -110 -17 -57 -33 -103 -35 -103 -1 0
-1 47 2 105 l5 105 -140 0 c-77 0 -142 -2 -144 -4 -2 -3 -1 -42 2 -88 4 -46
11 -183 15 -305 l7 -223 118 0 118 0 3 51 3 52 45 -67 c25 -36 48 -66 51 -66
4 0 38 14 76 31 37 17 79 35 92 40 23 9 22 12 -57 93 l-81 83 94 179 c52 98
91 182 87 185 -4 3 -45 14 -92 23 -47 9 -95 19 -106 22 -12 3 -24 2 -27 -3z"/>
<path d="M263 691 c-117 -40 -179 -120 -198 -258 -8 -62 14 -158 47 -206 78
-113 211 -172 331 -147 l54 11 12 56 c6 31 11 59 11 63 0 3 -28 4 -62 2 -76
-5 -111 17 -129 78 -10 33 -9 47 5 85 22 56 55 75 132 75 l57 0 -6 119 c-3 66
-8 125 -12 130 -11 18 -183 13 -242 -8z"/>
<path d="M563 618 c4 -51 9 -176 12 -278 3 -102 8 -200 11 -218 l5 -32 114 0
115 0 1 53 c1 28 4 63 9 77 l7 25 8 -27 c6 -23 10 -26 25 -18 41 22 50 13 50
-50 l0 -60 108 0 109 0 6 198 c4 108 10 248 13 310 l7 112 -137 0 -138 0 6
-47 c3 -27 8 -110 12 -185 l6 -137 -26 -7 c-14 -3 -33 -3 -42 0 -16 6 -16 50
2 299 l5 77 -147 0 -147 0 6 -92z"/>
<path d="M1204 518 c3 -106 9 -246 13 -311 l6 -117 117 0 117 0 6 173 c4 94
10 234 13 310 l7 137 -143 0 -143 0 7 -192z"/>
<path d="M2675 693 c11 -26 138 -425 165 -521 l24 -83 75 3 75 3 37 125 c20
69 62 203 93 298 31 95 56 177 56 182 0 6 -33 10 -73 10 l-74 0 -12 -68 c-7
-38 -18 -91 -25 -118 l-13 -49 -17 95 c-9 52 -19 105 -21 118 -5 22 -8 22
-151 22 -135 0 -146 -1 -139 -17z"/>
</g>
</svg>
